<svg width="1110" height="383" viewBox="0 0 1110 383" fill="none" xmlns="http://www.w3.org/2000/svg">
<path d="M1070 59.7635L1050.76 79V59.7635H1031L1050.76 40H1070V59.7635Z" fill="#D2DCE9"/>
<path d="M1071 20.2703L1051.27 40V20.2703H1031L1051.27 0H1071V20.2703Z" fill="#D2DCE9"/>
<path d="M1110 59.7635L1090.76 79V59.7635H1071L1090.76 40H1110V59.7635Z" fill="#D2DCE9"/>
<path d="M1110 20.2703L1090.76 40V20.2703H1071L1090.76 0H1110V20.2703Z" fill="#D2DCE9"/>
<path d="M48.5664 359.045L24.6113 383V359.045H0L24.6113 334.434H48.5664V359.045Z" fill="#D2DCE9"/>
<path d="M49.4336 310.051L25.0508 334.434V310.051H0L25.0508 285H49.4336V310.051Z" fill="#D2DCE9"/>
<path d="M98 359.045L74.045 383V359.045H49.4336L74.045 334.434H98V359.045Z" fill="#D2DCE9"/>
<path d="M98 310.051L74.045 334.434V310.051H49.4336L74.045 285H98V310.051Z" fill="#D2DCE9"/>
</svg>