<svg width="350" height="389" viewBox="0 0 350 389" fill="none" xmlns="http://www.w3.org/2000/svg">
<path d="M72 353.486L36.4865 389V353.486H0L36.4865 317H72V353.486Z" fill="#7188AA" fill-opacity="0.26"/>
<path d="M75 280.007L38.0068 317V280.007H0L38.0068 242H75V280.007Z" fill="#7188AA" fill-opacity="0.26"/>
<path d="M147 353.486L111.486 389V353.486H75L111.486 317H147V353.486Z" fill="#7188AA" fill-opacity="0.26"/>
<path d="M147 280.007L111.486 317V280.007H75L111.486 242H147V280.007Z" fill="#7188AA" fill-opacity="0.26"/>
<path d="M322 41.6824L308.682 55V41.6824H295L308.682 28H322V41.6824Z" fill="#A0B0C6"/>
<path d="M323 14.1892L309.189 28V14.1892H295L309.189 0H323V14.1892Z" fill="#A0B0C6"/>
<path d="M350 41.6824L336.682 55V41.6824H323L336.682 28H350V41.6824Z" fill="#A0B0C6"/>
<path d="M350 14.1892L336.682 28V14.1892H323L336.682 0H350V14.1892Z" fill="#A0B0C6"/>
</svg>

